 http://www.imdb.com/title/tt0388795/

Source: Brokeback.Mountain.2005.Bluray.720p.DTSHD.x264-CHD Thanks!

Subs: Arabic, Brazilian, Dutch, English, Farsi-Persian, French, Portuguese, Romanian, Slovenian, Spanish and Turkish.

Sample and Screens included.

General
Complete name                    : Brokeback Mountain-720p MP4 AAC x264 BRRip 2005-CC.mp4
Format                           : MPEG-4
Format profile                   : Base Media
Codec ID                         : isom
File size                        : 2.38 GiB
Duration                         : 2h 14mn
Overall bit rate                 : 2 531 Kbps
Encoded date                     : UTC 2012-07-31 18:44:53

Video
ID                               : 1
Format                           : AVC
Format/Info                      : Advanced Video Codec
Format profile                   : High@L3.1
Format settings, CABAC           : Yes
Format settings, ReFrames        : 5 frames
Codec ID                         : avc1
Codec ID/Info                    : Advanced Video Coding
Duration                         : 2h 14mn
Bit rate mode                    : Variable
Bit rate                         : 2 166 Kbps
Nominal bit rate                 : 2 191 Kbps
Maximum bit rate                 : 18.7 Mbps
Width                            : 1 280 pixels
Height                           : 688 pixels
Display aspect ratio             : 16:9
Frame rate mode                  : Variable
Frame rate                       : 23.976 fps
Minimum frame rate               : 15.997 fps
Maximum frame rate               : 24.390 fps
Resolution                       : 24 bits
Colorimetry                      : 4:2:0
Scan type                        : Progressive
Bits/(Pixel*Frame)               : 0.103
Stream size                      : 2.03 GiB (86%)
Writing library                  : x264 core 112

Audio
ID                               : 2
Format                           : AAC
Format/Info                      : Advanced Audio Codec
Format version                   : Version 4
Format profile                   : LC
Format settings, SBR             : No
Codec ID                         : 40
Duration                         : 2h 14mn
Bit rate mode                    : Variable
Bit rate                         : 360 Kbps
Maximum bit rate                 : 742 Kbps
Channel(s)                       : 6 channels
Channel positions                : Front: L C R, Rear: L R, LFE
Sampling rate                    : 48.0 KHz
Resolution                       : 16 bits
Stream size                      : 346 MiB (14%)
Language                         : English

Enjoy...

Requested by cmptrluvr's.